<?xml version="1.0" encoding="UTF-8" standalone="no"?>
<!-- Created with Inkscape (http://www.inkscape.org/) -->

<svg
   xmlns:dc="http://purl.org/dc/elements/1.1/"
   xmlns:cc="http://creativecommons.org/ns#"
   xmlns:rdf="http://www.w3.org/1999/02/22-rdf-syntax-ns#"
   xmlns:svg="http://www.w3.org/2000/svg"
   xmlns="http://www.w3.org/2000/svg"
   version="1.1"
   width="432"
   height="163"
   id="svg3925">
  <defs
     id="defs3927" />
  <metadata
     id="metadata3930">
    <rdf:RDF>
      <cc:Work
         rdf:about="">
        <dc:format>image/svg+xml</dc:format>
        <dc:type
           rdf:resource="http://purl.org/dc/dcmitype/StillImage" />
        <dc:title></dc:title>
      </cc:Work>
    </rdf:RDF>
  </metadata>
  <g
     transform="translate(27.952759,-515.0329)"
     id="layer4">
    <rect
       width="432"
       height="163"
       x="-27.952759"
       y="515.0329"
       id="rect3961"
       style="fill:#1c0113;fill-opacity:1;stroke:none" />
  </g>
  <g
     transform="translate(27.952759,-515.0329)"
     id="layer1">
    <path
       d="m 32.795373,599.3004 -21.647312,0 0,16.1361 -5.4122422,0 0,-37.65306 27.0595542,0 z m -5.41224,-5.37924 0,-10.75846 -16.235072,0 0,10.75846 z"
       id="path3777"
       style="font-size:72px;font-style:normal;font-variant:normal;font-weight:normal;font-stretch:normal;line-height:125%;letter-spacing:-4px;word-spacing:0px;fill:#ff8c3c;fill-opacity:1;stroke:none;font-family:Pixel Square;-inkscape-font-specification:Pixel Square" />
    <path
       d="m 67.629821,583.23966 -21.647257,0 0,10.7585 16.235034,0 0,5.37926 -16.235034,0 0,10.75682 21.647257,0 0,5.37925 -27.059527,0 0,-37.65305 27.059527,0 z"
       id="path3779"
       style="font-size:72px;font-style:normal;font-variant:normal;font-weight:normal;font-stretch:normal;line-height:125%;letter-spacing:-4px;word-spacing:0px;fill:#ff8c3c;fill-opacity:1;stroke:none;font-family:Pixel Square;-inkscape-font-specification:Pixel Square" />
    <path
       d="m 97.052069,594.07518 5.412231,0 0,21.51533 -5.412231,0 0,-17.05043 -16.235065,0 0,17.05043 -5.412268,0 0,-37.65306 21.647333,0 z m -5.41223,-0.91432 0,-9.84415 -10.822835,0 0,9.84415 z"
       id="path3781"
       style="font-size:72px;font-style:normal;font-variant:normal;font-weight:normal;font-stretch:normal;line-height:125%;letter-spacing:-4px;word-spacing:0px;fill:#ff8c3c;fill-opacity:1;stroke:none;font-family:Pixel Square;-inkscape-font-specification:Pixel Square" />
    <path
       d="m 110.23922,578.01449 27.05956,0 0,5.37922 -21.64729,0 0,10.75855 21.64729,0 0,21.51526 -27.05956,0 0,-5.37919 21.64732,0 0,-10.75686 -21.64732,0 z"
       id="path3783"
       style="font-size:72px;font-style:normal;font-variant:normal;font-weight:normal;font-stretch:normal;line-height:125%;letter-spacing:-4px;word-spacing:0px;fill:#ff8c3c;fill-opacity:1;stroke:none;font-family:Pixel Square;-inkscape-font-specification:Pixel Square" />
    <path
       d="m 172.13325,599.60856 -21.64732,0 0,16.13602 -5.41219,0 0,-37.65303 27.05951,0 z m -5.41223,-5.37928 0,-10.7585 -16.23509,0 0,10.7585 z"
       id="path3785"
       style="font-size:72px;font-style:normal;font-variant:normal;font-weight:normal;font-stretch:normal;line-height:125%;letter-spacing:-4px;word-spacing:0px;fill:#ff8c3c;fill-opacity:1;stroke:none;font-family:Pixel Square;-inkscape-font-specification:Pixel Square" />
    <path
       d="m 206.96774,583.54781 -21.64732,0 0,10.75847 16.23507,0 0,5.37923 -16.23507,0 0,10.75684 21.64732,0 0,5.37928 -27.05956,0 0,-37.65306 27.05956,0 z"
       id="path3787"
       style="font-size:72px;font-style:normal;font-variant:normal;font-weight:normal;font-stretch:normal;line-height:125%;letter-spacing:-4px;word-spacing:0px;fill:#ff8c3c;fill-opacity:1;stroke:none;font-family:Pixel Square;-inkscape-font-specification:Pixel Square" />
    <path
       d="m 214.74266,578.00341 5.41226,-3.90378 0,25.42078 5.41219,0 0,-10.75853 5.41061,0 0,10.75853 10.8245,0 0,16.13608 -5.41223,3.30972 0,-14.06823 -16.23507,0 0,10.75851 -5.41226,0 z"
       id="path3789"
       style="font-size:72px;font-style:normal;font-variant:normal;font-weight:normal;font-stretch:normal;line-height:125%;letter-spacing:-4px;word-spacing:0px;fill:#ff8c3c;fill-opacity:1;stroke:none;font-family:Pixel Square;-inkscape-font-specification:Pixel Square" />
    <path
       d="m 249.57713,578.24558 27.05956,0 0,5.37926 -10.82445,0 0,32.27377 -5.41064,0 0,-32.27377 -10.82447,0 z"
       id="path3791"
       style="font-size:72px;font-style:normal;font-variant:normal;font-weight:normal;font-stretch:normal;line-height:125%;letter-spacing:-4px;word-spacing:0px;fill:#ff8c3c;fill-opacity:1;stroke:none;font-family:Pixel Square;-inkscape-font-specification:Pixel Square" />
    <path
       d="m 284.41161,578.32263 16.23511,0 0,5.37923 -5.41062,0 0,26.89459 5.41062,0 0,5.37922 -16.23511,0 0,-5.37922 5.41223,0 0,-26.89459 -5.41223,0 z"
       id="path3793"
       style="font-size:72px;font-style:normal;font-variant:normal;font-weight:normal;font-stretch:normal;line-height:125%;letter-spacing:-4px;word-spacing:0px;fill:#ff8c3c;fill-opacity:1;stroke:none;font-family:Pixel Square;-inkscape-font-specification:Pixel Square" />
    <path
       d="m 313.8768,599.91659 5.41224,0 0,10.75685 5.41058,0 0,-10.75685 5.4122,0 0,-21.51698 5.41227,0 0,21.51698 -5.41227,0 0,10.75685 -5.4122,0 0,5.37927 -5.41058,0 0,-5.37927 -5.41224,0 0,-10.75685 -5.41223,0 0,-21.51698 5.41223,0 z"
       id="path3795"
       style="font-size:72px;font-style:normal;font-variant:normal;font-weight:normal;font-stretch:normal;line-height:125%;letter-spacing:-4px;word-spacing:0px;fill:#ff8c3c;fill-opacity:1;stroke:none;font-family:Pixel Square;-inkscape-font-specification:Pixel Square" />
    <path
       d="m 343.29901,616.12972 0,-32.27382 5.41226,0 0,-5.37922 16.23504,0 0,5.37922 5.41227,0 0,32.27382 -5.41227,0 0,-16.13605 -16.23504,0 0.0545,16.13605 z m 5.46678,-32.21965 0,10.70435 16.12603,0 0,-10.70435 z"
       id="path3797"
       style="font-size:72px;font-style:normal;font-variant:normal;font-weight:normal;font-stretch:normal;line-height:125%;letter-spacing:-4px;word-spacing:0px;fill:#ff8c3c;fill-opacity:1;stroke:none;font-family:Pixel Square;-inkscape-font-specification:Pixel Square" />
  </g>
</svg>
