<?xml version="1.0" encoding="UTF-8" standalone="no"?>
<!-- Created with Inkscape (http://www.inkscape.org/) -->

<svg
   xmlns:osb="http://www.openswatchbook.org/uri/2009/osb"
   xmlns:dc="http://purl.org/dc/elements/1.1/"
   xmlns:cc="http://creativecommons.org/ns#"
   xmlns:rdf="http://www.w3.org/1999/02/22-rdf-syntax-ns#"
   xmlns:svg="http://www.w3.org/2000/svg"
   xmlns="http://www.w3.org/2000/svg"
   xmlns:sodipodi="http://sodipodi.sourceforge.net/DTD/sodipodi-0.dtd"
   xmlns:inkscape="http://www.inkscape.org/namespaces/inkscape"
   width="485.09375"
   height="60.056641"
   id="svg2"
   version="1.1"
   inkscape:version="0.48.5 r10040"
   sodipodi:docname="logo_color.svg">
  <defs
     id="defs4">
    <marker
       inkscape:stockid="Arrow1Mend"
       orient="auto"
       refY="0"
       refX="0"
       id="Arrow1Mend"
       style="overflow:visible">
      <path
         id="path6219"
         d="M 0,0 5,-5 -12.5,0 5,5 0,0 z"
         style="fill-rule:evenodd;stroke:#000000;stroke-width:1pt"
         transform="matrix(-0.4,0,0,-0.4,-4,0)"
         inkscape:connector-curvature="0" />
    </marker>
    <linearGradient
       id="linearGradient6178">
      <stop
         style="stop-color:#ff8c3c;stop-opacity:1;"
         offset="0"
         id="stop6180" />
      <stop
         style="stop-color:#000000;stop-opacity:0;"
         offset="1"
         id="stop6182" />
    </linearGradient>
    <linearGradient
       id="linearGradient6046"
       osb:paint="solid">
      <stop
         style="stop-color:#000000;stop-opacity:1;"
         offset="0"
         id="stop6048" />
    </linearGradient>
    <linearGradient
       id="linearGradient5970">
      <stop
         style="stop-color:#1c0113;stop-opacity:1;"
         offset="0"
         id="stop5972" />
      <stop
         id="stop6020"
         offset="0.5"
         style="stop-color:#8d4627;stop-opacity:1;" />
      <stop
         style="stop-color:#ff8c3c;stop-opacity:1;"
         offset="1"
         id="stop5974" />
    </linearGradient>
    <linearGradient
       id="linearGradient5944"
       osb:paint="solid">
      <stop
         style="stop-color:#1c0113;stop-opacity:1;"
         offset="0"
         id="stop5946" />
    </linearGradient>
    <inkscape:perspective
       sodipodi:type="inkscape:persp3d"
       inkscape:vp_x="0 : 526.18109 : 1"
       inkscape:vp_y="0 : 1000 : 0"
       inkscape:vp_z="744.09448 : 526.18109 : 1"
       inkscape:persp3d-origin="372.04724 : 350.78739 : 1"
       id="perspective3760" />
  </defs>
  <sodipodi:namedview
     id="base"
     pagecolor="#ffffff"
     bordercolor="#666666"
     borderopacity="1.0"
     inkscape:pageopacity="0.0"
     inkscape:pageshadow="2"
     inkscape:zoom="1.5561706"
     inkscape:cx="148.87235"
     inkscape:cy="107.90276"
     inkscape:document-units="px"
     inkscape:current-layer="text2985"
     showgrid="true"
     inkscape:snap-global="false"
     showguides="false"
     inkscape:window-width="1920"
     inkscape:window-height="1017"
     inkscape:window-x="-8"
     inkscape:window-y="-8"
     inkscape:window-maximized="1"
     fit-margin-top="0"
     fit-margin-left="0"
     fit-margin-right="0"
     fit-margin-bottom="0">
    <inkscape:grid
       type="xygrid"
       id="grid3799"
       empspacing="5"
       visible="true"
       enabled="true"
       snapvisiblegridlinesonly="true"
       originx="-94.354851px"
       originy="-774.97846px" />
  </sodipodi:namedview>
  <metadata
     id="metadata7">
    <rdf:RDF>
      <cc:Work
         rdf:about="">
        <dc:format>image/svg+xml</dc:format>
        <dc:type
           rdf:resource="http://purl.org/dc/dcmitype/StillImage" />
        <dc:title></dc:title>
      </cc:Work>
    </rdf:RDF>
  </metadata>
  <g
     inkscape:label="Layer 1"
     inkscape:groupmode="layer"
     id="layer1"
     transform="translate(-94.354851,-217.32708)">
    <g
       style="font-size:40px;font-style:normal;font-weight:normal;line-height:125%;letter-spacing:0px;word-spacing:0px;fill:#000000;fill-opacity:1;stroke:none;font-family:Sans"
       id="text2985">
      <path
         d="m 130.35485,251.35431 -28.79956,0 0,21.59912 -7.200439,0 0,-50.40088 35.999999,0 z m -7.20044,-7.20044 0,-14.40088 -21.59912,0 0,14.40088 z"
         style="font-size:72px;font-variant:normal;font-stretch:normal;line-height:125%;letter-spacing:-4px;fill:#ff6400;fill-opacity:1;stroke:none;stroke-width:1;marker-start:none;font-family:Pixel Square;-inkscape-font-specification:Pixel Square"
         id="path3777"
         inkscape:connector-curvature="0" />
      <path
         d="m 176.6986,229.75299 -28.79956,0 0,14.40088 21.59912,0 0,7.20044 -21.59912,0 0,14.39868 28.79956,0 0,7.20044 -36,0 0,-50.40088 36,0 z"
         style="font-size:72px;font-variant:normal;font-stretch:normal;line-height:125%;letter-spacing:-4px;fill:#ff6400;fill-opacity:1;stroke:none;stroke-width:1;marker-start:none;font-family:Pixel Square;-inkscape-font-specification:Pixel Square"
         id="path3779"
         inkscape:connector-curvature="0" />
      <path
         d="m 215.84191,244.15387 7.20044,0 0,28.79956 -7.20044,0 0,-22.823 -21.59912,0 0,22.823 -7.20044,0 0,-50.40088 28.79956,0 z m -7.20044,-1.22388 0,-13.177 -14.39868,0 0,13.177 z"
         style="font-size:72px;font-variant:normal;font-stretch:normal;line-height:125%;letter-spacing:-4px;fill:#ff6400;fill-opacity:1;stroke:none;stroke-width:1;marker-start:none;font-family:Pixel Square;-inkscape-font-specification:Pixel Square"
         id="path3781"
         inkscape:connector-curvature="0" />
      <path
         d="m 233.3861,222.55255 36,0 0,7.20044 -28.79956,0 0,14.40088 28.79956,0 0,28.79956 -36,0 0,-7.20044 28.79956,0 0,-14.39868 -28.79956,0 z"
         style="font-size:72px;font-variant:normal;font-stretch:normal;line-height:125%;letter-spacing:-4px;fill:#ff6400;fill-opacity:1;stroke:none;stroke-width:1;marker-start:none;font-family:Pixel Square;-inkscape-font-specification:Pixel Square"
         id="path3783"
         inkscape:connector-curvature="0" />
      <path
         d="m 315.72985,251.35431 -28.79956,0 0,21.59912 -7.20044,0 0,-50.40088 36,0 z m -7.20044,-7.20044 0,-14.40088 -21.59912,0 0,14.40088 z"
         style="font-size:72px;font-variant:normal;font-stretch:normal;line-height:125%;letter-spacing:-4px;fill:#ff6400;fill-opacity:1;stroke:none;stroke-width:1;marker-start:none;font-family:Pixel Square;-inkscape-font-specification:Pixel Square"
         id="path3785"
         inkscape:connector-curvature="0" />
      <path
         d="m 362.0736,229.75299 -28.79956,0 0,14.40088 21.59912,0 0,7.20044 -21.59912,0 0,14.39868 28.79956,0 0,7.20044 -36,0 0,-50.40088 36,0 z"
         style="font-size:72px;font-variant:normal;font-stretch:normal;line-height:125%;letter-spacing:-4px;fill:#ff6400;fill-opacity:1;stroke:none;stroke-width:1;marker-start:none;font-family:Pixel Square;-inkscape-font-specification:Pixel Square"
         id="path3787"
         inkscape:connector-curvature="0" />
      <path
         d="m 372.41735,222.55255 7.20044,-5.22547 0,34.02723 7.20044,0 0,-14.40088 7.19824,0 0,14.40088 14.40088,0 0,21.59912 -7.20044,4.43029 0,-18.83117 -21.59912,0 0,14.40088 -7.20044,0 z"
         style="font-size:72px;font-variant:normal;font-stretch:normal;line-height:125%;letter-spacing:-4px;fill:#ff6400;fill-opacity:1;stroke:none;stroke-width:1;marker-start:none;font-family:Pixel Square;-inkscape-font-specification:Pixel Square"
         id="path3789"
         inkscape:connector-curvature="0"
         sodipodi:nodetypes="ccccccccccccccc" />
      <path
         d="m 418.7611,222.55255 36,0 0,7.20044 -14.40088,0 0,43.20044 -7.19824,0 0,-43.20044 -14.40088,0 z"
         style="font-size:72px;font-variant:normal;font-stretch:normal;line-height:125%;letter-spacing:-4px;fill:#ff6400;fill-opacity:1;stroke:none;stroke-width:1;marker-start:none;font-family:Pixel Square;-inkscape-font-specification:Pixel Square"
         id="path3791"
         inkscape:connector-curvature="0" />
      <path
         d="m 465.10485,222.55255 21.59912,0 0,7.20044 -7.19824,0 0,36 7.19824,0 0,7.20044 -21.59912,0 0,-7.20044 7.20044,0 0,-36 -7.20044,0 z"
         style="font-size:72px;font-variant:normal;font-stretch:normal;line-height:125%;letter-spacing:-4px;fill:#ff6400;fill-opacity:1;stroke:none;stroke-width:1;marker-start:none;font-family:Pixel Square;-inkscape-font-specification:Pixel Square"
         id="path3793"
         inkscape:connector-curvature="0" />
      <path
         d="m 504.30529,251.35431 7.20044,0 0,14.39868 7.19824,0 0,-14.39868 7.20044,0 0,-28.80176 7.20044,0 0,28.80176 -7.20044,0 0,14.39868 -7.20044,0 0,7.20044 -7.19824,0 0,-7.20044 -7.20044,0 0,-14.39868 -7.20044,0 0,-28.80176 7.20044,0 z"
         style="font-size:72px;font-variant:normal;font-stretch:normal;line-height:125%;letter-spacing:-4px;fill:#ff6400;fill-opacity:1;stroke:none;stroke-width:1;marker-start:none;font-family:Pixel Square;-inkscape-font-specification:Pixel Square"
         id="path3795"
         inkscape:connector-curvature="0" />
      <path
         d="m 543.4486,272.95343 0,-43.20044 7.20044,0 0,-7.20044 21.59912,0 0,7.20044 7.20044,0 0,43.20044 -7.20044,0 0,-21.59912 -21.59912,0 0.0725,21.59912 z m 7.27295,-43.12793 0,14.32837 21.4541,0 0,-14.32837 z"
         style="font-size:72px;font-variant:normal;font-stretch:normal;line-height:125%;letter-spacing:-4px;fill:#ff6400;fill-opacity:1;stroke:none;stroke-width:1;marker-start:none;font-family:Pixel Square;-inkscape-font-specification:Pixel Square"
         id="path3797"
         inkscape:connector-curvature="0" />
    </g>
  </g>
</svg>
