<?xml version="1.0" encoding="UTF-8" standalone="no"?>
<!-- Created with Inkscape (http://www.inkscape.org/) -->

<svg
   xmlns:dc="http://purl.org/dc/elements/1.1/"
   xmlns:cc="http://creativecommons.org/ns#"
   xmlns:rdf="http://www.w3.org/1999/02/22-rdf-syntax-ns#"
   xmlns:svg="http://www.w3.org/2000/svg"
   xmlns="http://www.w3.org/2000/svg"
   version="1.1"
   width="485.09375"
   height="60.056641"
   id="svg2">
  <defs
     id="defs4">
    <marker
       refX="0"
       refY="0"
       orient="auto"
       id="Arrow1Mend"
       style="overflow:visible">
      <path
         d="M 0,0 5,-5 -12.5,0 5,5 0,0 z"
         transform="matrix(-0.4,0,0,-0.4,-4,0)"
         id="path6219"
         style="fill-rule:evenodd;stroke:#000000;stroke-width:1pt" />
    </marker>
    <linearGradient
       id="linearGradient6178">
      <stop
         id="stop6180"
         style="stop-color:#ff8c3c;stop-opacity:1"
         offset="0" />
      <stop
         id="stop6182"
         style="stop-color:#000000;stop-opacity:0"
         offset="1" />
    </linearGradient>
    <linearGradient
       id="linearGradient6046">
      <stop
         id="stop6048"
         style="stop-color:#000000;stop-opacity:1"
         offset="0" />
    </linearGradient>
    <linearGradient
       id="linearGradient5970">
      <stop
         id="stop5972"
         style="stop-color:#1c0113;stop-opacity:1"
         offset="0" />
      <stop
         id="stop6020"
         style="stop-color:#8d4627;stop-opacity:1"
         offset="0.5" />
      <stop
         id="stop5974"
         style="stop-color:#ff8c3c;stop-opacity:1"
         offset="1" />
    </linearGradient>
    <linearGradient
       id="linearGradient5944">
      <stop
         id="stop5946"
         style="stop-color:#1c0113;stop-opacity:1"
         offset="0" />
    </linearGradient>
  </defs>
  <metadata
     id="metadata7">
    <rdf:RDF>
      <cc:Work
         rdf:about="">
        <dc:format>image/svg+xml</dc:format>
        <dc:type
           rdf:resource="http://purl.org/dc/dcmitype/StillImage" />
        <dc:title></dc:title>
      </cc:Work>
    </rdf:RDF>
  </metadata>
  <g
     transform="translate(-94.354851,-217.32708)"
     id="layer1">
    <g
       id="text2985"
       style="font-size:40px;font-style:normal;font-weight:normal;line-height:125%;letter-spacing:0px;word-spacing:0px;fill:#000000;fill-opacity:1;stroke:none;font-family:Sans">
      <path
         d="m 130.35485,251.35431 -28.79956,0 0,21.59912 -7.200439,0 0,-50.40088 35.999999,0 z m -7.20044,-7.20044 0,-14.40088 -21.59912,0 0,14.40088 z"
         id="path3777"
         style="font-size:72px;font-variant:normal;font-stretch:normal;line-height:125%;letter-spacing:-4px;fill:#ff6400;fill-opacity:1;stroke:none;stroke-width:1;marker-start:none;font-family:Pixel Square;-inkscape-font-specification:Pixel Square" />
      <path
         d="m 176.6986,229.75299 -28.79956,0 0,14.40088 21.59912,0 0,7.20044 -21.59912,0 0,14.39868 28.79956,0 0,7.20044 -36,0 0,-50.40088 36,0 z"
         id="path3779"
         style="font-size:72px;font-variant:normal;font-stretch:normal;line-height:125%;letter-spacing:-4px;fill:#ff6400;fill-opacity:1;stroke:none;stroke-width:1;marker-start:none;font-family:Pixel Square;-inkscape-font-specification:Pixel Square" />
      <path
         d="m 215.84191,244.15387 7.20044,0 0,28.79956 -7.20044,0 0,-22.823 -21.59912,0 0,22.823 -7.20044,0 0,-50.40088 28.79956,0 z m -7.20044,-1.22388 0,-13.177 -14.39868,0 0,13.177 z"
         id="path3781"
         style="font-size:72px;font-variant:normal;font-stretch:normal;line-height:125%;letter-spacing:-4px;fill:#ff6400;fill-opacity:1;stroke:none;stroke-width:1;marker-start:none;font-family:Pixel Square;-inkscape-font-specification:Pixel Square" />
      <path
         d="m 233.3861,222.55255 36,0 0,7.20044 -28.79956,0 0,14.40088 28.79956,0 0,28.79956 -36,0 0,-7.20044 28.79956,0 0,-14.39868 -28.79956,0 z"
         id="path3783"
         style="font-size:72px;font-variant:normal;font-stretch:normal;line-height:125%;letter-spacing:-4px;fill:#ff6400;fill-opacity:1;stroke:none;stroke-width:1;marker-start:none;font-family:Pixel Square;-inkscape-font-specification:Pixel Square" />
      <path
         d="m 315.72985,251.35431 -28.79956,0 0,21.59912 -7.20044,0 0,-50.40088 36,0 z m -7.20044,-7.20044 0,-14.40088 -21.59912,0 0,14.40088 z"
         id="path3785"
         style="font-size:72px;font-variant:normal;font-stretch:normal;line-height:125%;letter-spacing:-4px;fill:#ff6400;fill-opacity:1;stroke:none;stroke-width:1;marker-start:none;font-family:Pixel Square;-inkscape-font-specification:Pixel Square" />
      <path
         d="m 362.0736,229.75299 -28.79956,0 0,14.40088 21.59912,0 0,7.20044 -21.59912,0 0,14.39868 28.79956,0 0,7.20044 -36,0 0,-50.40088 36,0 z"
         id="path3787"
         style="font-size:72px;font-variant:normal;font-stretch:normal;line-height:125%;letter-spacing:-4px;fill:#ff6400;fill-opacity:1;stroke:none;stroke-width:1;marker-start:none;font-family:Pixel Square;-inkscape-font-specification:Pixel Square" />
      <path
         d="m 372.41735,222.55255 7.20044,-5.22547 0,34.02723 7.20044,0 0,-14.40088 7.19824,0 0,14.40088 14.40088,0 0,21.59912 -7.20044,4.43029 0,-18.83117 -21.59912,0 0,14.40088 -7.20044,0 z"
         id="path3789"
         style="font-size:72px;font-variant:normal;font-stretch:normal;line-height:125%;letter-spacing:-4px;fill:#ff6400;fill-opacity:1;stroke:none;stroke-width:1;marker-start:none;font-family:Pixel Square;-inkscape-font-specification:Pixel Square" />
      <path
         d="m 418.7611,222.55255 36,0 0,7.20044 -14.40088,0 0,43.20044 -7.19824,0 0,-43.20044 -14.40088,0 z"
         id="path3791"
         style="font-size:72px;font-variant:normal;font-stretch:normal;line-height:125%;letter-spacing:-4px;fill:#ff6400;fill-opacity:1;stroke:none;stroke-width:1;marker-start:none;font-family:Pixel Square;-inkscape-font-specification:Pixel Square" />
      <path
         d="m 465.10485,222.55255 21.59912,0 0,7.20044 -7.19824,0 0,36 7.19824,0 0,7.20044 -21.59912,0 0,-7.20044 7.20044,0 0,-36 -7.20044,0 z"
         id="path3793"
         style="font-size:72px;font-variant:normal;font-stretch:normal;line-height:125%;letter-spacing:-4px;fill:#ff6400;fill-opacity:1;stroke:none;stroke-width:1;marker-start:none;font-family:Pixel Square;-inkscape-font-specification:Pixel Square" />
      <path
         d="m 504.30529,251.35431 7.20044,0 0,14.39868 7.19824,0 0,-14.39868 7.20044,0 0,-28.80176 7.20044,0 0,28.80176 -7.20044,0 0,14.39868 -7.20044,0 0,7.20044 -7.19824,0 0,-7.20044 -7.20044,0 0,-14.39868 -7.20044,0 0,-28.80176 7.20044,0 z"
         id="path3795"
         style="font-size:72px;font-variant:normal;font-stretch:normal;line-height:125%;letter-spacing:-4px;fill:#ff6400;fill-opacity:1;stroke:none;stroke-width:1;marker-start:none;font-family:Pixel Square;-inkscape-font-specification:Pixel Square" />
      <path
         d="m 543.4486,272.95343 0,-43.20044 7.20044,0 0,-7.20044 21.59912,0 0,7.20044 7.20044,0 0,43.20044 -7.20044,0 0,-21.59912 -21.59912,0 0.0725,21.59912 z m 7.27295,-43.12793 0,14.32837 21.4541,0 0,-14.32837 z"
         id="path3797"
         style="font-size:72px;font-variant:normal;font-stretch:normal;line-height:125%;letter-spacing:-4px;fill:#ff6400;fill-opacity:1;stroke:none;stroke-width:1;marker-start:none;font-family:Pixel Square;-inkscape-font-specification:Pixel Square" />
    </g>
  </g>
</svg>
